<svg xmlns="http://www.w3.org/2000/svg" xmlns:xlink="http://www.w3.org/1999/xlink" width="1400" zoomAndPan="magnify" viewBox="0 0 1050 1049.999947" height="1400" preserveAspectRatio="xMidYMid meet" version="1.0"><defs><clipPath id="id1"><path d="M 450.378906 483.484375 L 466.976562 483.484375 L 466.976562 499.816406 L 450.378906 499.816406 Z M 450.378906 483.484375 " clip-rule="nonzero"/></clipPath><clipPath id="id2"><path d="M 505 538 L 516 538 L 516 548.925781 L 505 548.925781 Z M 505 538 " clip-rule="nonzero"/></clipPath><clipPath id="id3"><path d="M 559 488 L 564.902344 488 L 564.902344 495 L 559 495 Z M 559 488 " clip-rule="nonzero"/></clipPath></defs><path fill="#ffffff" d="M 510.355469 429.039062 C 504.59375 429.039062 499.917969 433.707031 499.917969 439.460938 C 499.917969 445.203125 504.59375 449.871094 510.355469 449.871094 C 516.113281 449.871094 520.777344 445.203125 520.777344 439.460938 C 520.777344 433.707031 516.113281 429.039062 510.355469 429.039062 " fill-opacity="1" fill-rule="nonzero"/><path fill="#ffffff" d="M 484.277344 436.855469 C 478.996094 436.855469 474.71875 441.128906 474.71875 446.40625 C 474.71875 451.667969 478.996094 455.941406 484.277344 455.941406 C 489.558594 455.941406 493.839844 451.667969 493.839844 446.40625 C 493.839844 441.128906 489.558594 436.855469 484.277344 436.855469 " fill-opacity="1" fill-rule="nonzero"/><path fill="#ffffff" d="M 465.15625 456.816406 C 460.355469 456.816406 456.46875 460.695312 456.46875 465.492188 C 456.46875 470.289062 460.355469 474.167969 465.15625 474.167969 C 469.957031 474.167969 473.855469 470.289062 473.855469 465.492188 C 473.855469 460.695312 469.957031 456.816406 465.15625 456.816406 " fill-opacity="1" fill-rule="nonzero"/><g clip-path="url(#id1)"><path fill="#ffffff" d="M 458.203125 483.71875 C 453.890625 483.71875 450.390625 487.214844 450.390625 491.53125 C 450.390625 495.839844 453.890625 499.347656 458.203125 499.347656 C 462.527344 499.347656 466.03125 495.839844 466.03125 491.53125 C 466.03125 487.214844 462.527344 483.71875 458.203125 483.71875 " fill-opacity="1" fill-rule="nonzero"/></g><path fill="#ffffff" d="M 465.15625 510.621094 C 461.324219 510.621094 458.203125 513.734375 458.203125 517.574219 C 458.203125 521.402344 461.324219 524.515625 465.15625 524.515625 C 469 524.515625 472.109375 521.402344 472.109375 517.574219 C 472.109375 513.734375 469 510.621094 465.15625 510.621094 " fill-opacity="1" fill-rule="nonzero"/><path fill="#ffffff" d="M 484.277344 530.589844 C 480.914062 530.589844 478.199219 533.3125 478.199219 536.660156 C 478.199219 540.019531 480.914062 542.742188 484.277344 542.742188 C 487.644531 542.742188 490.359375 540.019531 490.359375 536.660156 C 490.359375 533.3125 487.644531 530.589844 484.277344 530.589844 " fill-opacity="1" fill-rule="nonzero"/><g clip-path="url(#id2)"><path fill="#ffffff" d="M 510.355469 538.40625 C 507.46875 538.40625 505.136719 540.734375 505.136719 543.605469 C 505.136719 546.484375 507.46875 548.816406 510.355469 548.816406 C 513.226562 548.816406 515.570312 546.484375 515.570312 543.605469 C 515.570312 540.734375 513.226562 538.40625 510.355469 538.40625 " fill-opacity="1" fill-rule="nonzero"/></g><path fill="#ffffff" d="M 536.417969 532.324219 C 534.023438 532.324219 532.074219 534.269531 532.074219 536.660156 C 532.074219 539.0625 534.023438 541.011719 536.417969 541.011719 C 538.824219 541.011719 540.773438 539.0625 540.773438 536.660156 C 540.773438 534.269531 538.824219 532.324219 536.417969 532.324219 " fill-opacity="1" fill-rule="nonzero"/><path fill="#ffffff" d="M 555.539062 514.097656 C 553.625 514.097656 552.070312 515.648438 552.070312 517.574219 C 552.070312 519.488281 553.625 521.039062 555.539062 521.039062 C 557.46875 521.039062 559.019531 519.488281 559.019531 517.574219 C 559.019531 515.648438 557.46875 514.097656 555.539062 514.097656 " fill-opacity="1" fill-rule="nonzero"/><g clip-path="url(#id3)"><path fill="#ffffff" d="M 562.492188 488.925781 C 561.054688 488.925781 559.882812 490.097656 559.882812 491.53125 C 559.882812 492.96875 561.054688 494.136719 562.492188 494.136719 C 563.929688 494.136719 565.101562 492.96875 565.101562 491.53125 C 565.101562 490.097656 563.929688 488.925781 562.492188 488.925781 " fill-opacity="1" fill-rule="nonzero"/></g><path fill="#ffffff" d="M 555.539062 463.757812 C 554.582031 463.757812 553.804688 464.535156 553.804688 465.492188 C 553.804688 466.449219 554.582031 467.226562 555.539062 467.226562 C 556.5 467.226562 557.273438 466.449219 557.273438 465.492188 C 557.273438 464.535156 556.5 463.757812 555.539062 463.757812 " fill-opacity="1" fill-rule="nonzero"/></svg>